<?xml version="1.0" encoding="utf-8"?>
<!-- Generator: Adobe Illustrator 16.2.1, SVG Export Plug-In . SVG Version: 6.00 Build 0)  -->
<!DOCTYPE svg PUBLIC "-//W3C//DTD SVG 1.1//EN" "http://www.w3.org/Graphics/SVG/1.1/DTD/svg11.dtd">
<svg version="1.1" id="_xF8FF_Watch_Sport_1_" xmlns="http://www.w3.org/2000/svg" xmlns:xlink="http://www.w3.org/1999/xlink"
	 x="0px" y="0px" width="102px" height="22px" viewBox="1.764 2.017 102 22" enable-background="new 1.764 2.017 102 22"
	 xml:space="preserve">
<g id="_xF8FF_Watch_Sport">
	<g>
		<path d="M38.491,18.982h-0.047L35.619,7.729h-3.322l-2.812,11.253h-0.048L26.82,7.729h-3.496l4.399,15.754h3.299l2.906-10.768
			h0.058l2.906,10.768h3.323l4.387-15.754h-3.496L38.491,18.982z M80.248,7.474c-4.167,0-6.656,2.688-6.656,7.203v1.904
			c0,4.558,2.478,7.167,6.645,7.167c4.179,0,6.264-2.539,6.264-5.379v-0.288h-3.138c0,1.628-0.811,2.897-3.068,2.897
			c-2.27,0-3.381-1.397-3.381-4.397v-1.904c0-2.967,1.123-4.455,3.358-4.455c2.094,0,3.091,1.385,3.091,2.943H86.5v-0.163
			C86.5,9.932,84.161,7.474,80.248,7.474z M49.894,7.729L44.8,23.483h3.276l1.145-3.971h4.999l1.127,3.971h3.507L53.771,7.728
			L49.894,7.729L49.894,7.729z M49.919,17.087l1.803-6.255h0.035l1.775,6.255H49.919z M99.72,14.053h-6.459V7.729h-3.276v15.754
			h3.276v-6.718h6.459v6.718h3.287V7.729H99.72V14.053z M58.796,10.452h4.7v13.031h3.266V10.452h4.712V7.728H58.796V10.452z
			 M17.181,13.688c-0.025-2.719,2.227-4.026,2.33-4.09c-1.279-1.876-3.252-2.083-3.948-2.135c-1.775-0.13-3.281,0.988-4.122,0.988
			c-0.852,0-2.166-0.96-3.56-0.935c-1.829,0.028-3.517,1.061-4.458,2.695c-1.901,3.29-0.486,8.163,1.365,10.83
			c0.906,1.305,1.985,2.773,3.404,2.719c1.365-0.052,1.881-0.88,3.532-0.88c1.649,0,2.115,0.88,3.559,0.852
			c1.469-0.025,2.4-1.329,3.299-2.641c1.04-1.514,1.468-2.977,1.492-3.056C20.042,18.025,17.21,16.94,17.181,13.688z M14.466,5.701
			c0.755-0.907,1.261-2.172,1.122-3.429c-1.084,0.042-2.396,0.721-3.175,1.627c-0.697,0.805-1.309,2.092-1.144,3.326
			C12.48,7.316,13.714,6.611,14.466,5.701z"/>
	</g>
</g>
</svg>
