<?xml version="1.0" encoding="utf-8"?>
<!-- Generator: Adobe Illustrator 16.2.1, SVG Export Plug-In . SVG Version: 6.00 Build 0)  -->
<!DOCTYPE svg PUBLIC "-//W3C//DTD SVG 1.1//EN" "http://www.w3.org/Graphics/SVG/1.1/DTD/svg11.dtd">
<svg version="1.1" id="_xF8FF_Watch_Sport_1_" xmlns="http://www.w3.org/2000/svg" xmlns:xlink="http://www.w3.org/1999/xlink"
	 x="0px" y="0px" width="178px" height="22px" viewBox="0 0 178 22" enable-background="new 0 0 178 22" xml:space="preserve">
<g id="_xF8FF_Watch_Sport_2_">
	<g>
		<path d="M36.223,16.883h-0.045l-2.81-11.192h-3.306l-2.798,11.192h-0.046L24.617,5.691h-3.478l4.376,15.669h3.28l2.891-10.709
			h0.057l2.891,10.709h3.306l4.364-15.669h-3.478L36.223,16.883z M77.755,5.438c-4.145,0-6.621,2.675-6.621,7.164v1.895
			c0,4.533,2.465,7.129,6.61,7.129c4.156,0,6.229-2.525,6.229-5.351v-0.286h-3.121c0,1.619-0.806,2.881-3.051,2.881
			c-2.257,0-3.363-1.389-3.363-4.373v-1.895c0-2.95,1.118-4.431,3.34-4.431c2.084,0,3.074,1.376,3.074,2.928h3.121v-0.162
			C83.974,7.883,81.647,5.438,77.755,5.438z M47.564,5.691L42.498,21.36h3.258l1.139-3.949h4.972l1.121,3.949h3.489L51.422,5.69
			L47.564,5.691L47.564,5.691z M47.59,15l1.794-6.221h0.033L51.183,15H47.59z M97.124,11.981h-6.425v-6.29h-3.26V21.36h3.26v-6.68
			h6.425v6.68h3.271V5.691h-3.271V11.981z M56.419,8.4h4.675v12.959h3.247V8.4h4.686V5.69H56.419V8.4z M117.559,13.228l-1.983-0.54
			c-1.972-0.527-3.032-1.38-3.032-3.127c0-2,1.535-3.321,4.036-3.321c2.802,0,3.944,1.654,4.002,3.092h0.957
			c-0.024-2.23-1.88-3.955-4.944-3.955c-3,0-5.027,1.656-5.027,4.208c0,2.24,1.439,3.39,3.597,3.966l2.054,0.551
			c2.375,0.632,3.644,1.414,3.644,3.345c0,2.002-1.743,3.426-4.349,3.426c-3.285,0-4.438-2.023-4.496-3.459h-0.969
			c0.023,1.771,1.383,4.322,5.361,4.322c3.158,0,5.432-1.633,5.432-4.346C121.837,14.907,120.281,13.963,117.559,13.228z
			 M130.219,5.747h-5.053v15.631h0.946V14.94h4.104c3.123,0,4.889-1.77,4.889-4.586C135.106,7.54,133.34,5.747,130.219,5.747z
			 M129.883,14.09h-3.771V6.607h4.081c2.501,0,3.943,1.392,3.943,3.747C134.139,12.86,132.582,14.09,129.883,14.09z M143.76,5.389
			c-3.781,0-5.983,2.678-5.983,6.793v2.805c0,4.115,2.179,6.748,5.973,6.748c3.804,0,6.005-2.633,6.005-6.748v-2.781
			C149.753,8.08,147.553,5.389,143.76,5.389z M148.821,15.056c0,3.528-1.926,5.815-5.061,5.815c-3.138,0-5.053-2.287-5.053-5.815
			v-2.942c0-3.529,1.948-5.862,5.053-5.862c3.112,0,5.061,2.333,5.061,5.862V15.056z M163.418,10.136
			c0-2.562-1.754-4.391-4.738-4.391h-5.156v15.632h0.947v-6.828h4.635l3.481,6.828h1.097l-3.598-7.012
			C161.942,13.918,163.418,12.584,163.418,10.136z M158.518,13.709h-4.049V6.596h4.069c2.399,0,3.91,1.333,3.91,3.574
			C162.45,12.366,160.951,13.709,158.518,13.709z M166.057,5.747v0.86h5.281v14.771h0.944V6.607h5.271v-0.86H166.057z M15.03,11.62
			c-0.025-2.704,2.214-4.004,2.316-4.067c-1.272-1.867-3.235-2.073-3.927-2.124c-1.765-0.13-3.263,0.983-4.099,0.983
			c-0.847,0-2.154-0.955-3.541-0.931c-1.82,0.028-3.497,1.057-4.435,2.682c-1.891,3.271-0.483,8.117,1.357,10.771
			c0.901,1.298,1.975,2.759,3.386,2.705c1.359-0.052,1.871-0.876,3.513-0.876c1.641,0,2.104,0.876,3.539,0.85
			c1.461-0.025,2.388-1.322,3.281-2.628c1.034-1.505,1.46-2.961,1.485-3.041C17.874,15.932,15.057,14.853,15.03,11.62z
			 M12.329,3.675c0.75-0.902,1.254-2.161,1.115-3.411c-1.078,0.042-2.384,0.716-3.157,1.618c-0.694,0.8-1.302,2.08-1.137,3.308
			C10.352,5.282,11.579,4.58,12.329,3.675z"/>
	</g>
</g>
</svg>
