<?xml version="1.0" encoding="utf-8"?>
<!-- Generator: Adobe Illustrator 16.2.1, SVG Export Plug-In . SVG Version: 6.00 Build 0)  -->
<!DOCTYPE svg PUBLIC "-//W3C//DTD SVG 1.1//EN" "http://www.w3.org/Graphics/SVG/1.1/DTD/svg11.dtd">
<svg version="1.1" id="_xF8FF_Watch_Sport_1_" xmlns="http://www.w3.org/2000/svg" xmlns:xlink="http://www.w3.org/1999/xlink"
	 x="0px" y="0px" width="190px" height="22px" viewBox="0 0 190 22" enable-background="new 0 0 190 22" xml:space="preserve">
<g id="_xF8FF_Watch_Edition">
	<g>
		<path d="M36.067,16.883h-0.047L33.212,5.691h-3.305L27.11,16.883h-0.047L24.461,5.691h-3.478l4.375,15.669h3.282l2.89-10.71h0.058
			l2.89,10.71h3.304l4.364-15.669h-3.477L36.067,16.883z M77.595,5.438c-4.145,0-6.62,2.675-6.62,7.164v1.895
			c0,4.533,2.464,7.127,6.609,7.127c4.156,0,6.229-2.524,6.229-5.351v-0.286h-3.12c0,1.619-0.806,2.881-3.051,2.881
			c-2.257,0-3.363-1.389-3.363-4.373V12.6c0-2.95,1.117-4.431,3.339-4.431c2.084,0,3.074,1.376,3.074,2.927h3.12v-0.159
			C83.813,7.883,81.487,5.438,77.595,5.438z M47.407,5.691L42.341,21.36h3.258l1.139-3.949h4.971l1.12,3.949h3.489L51.265,5.691
			H47.407L47.407,5.691z M47.433,15l1.794-6.221h0.034L51.026,15H47.433z M96.961,11.981h-6.425v-6.29h-3.258V21.36h3.258v-6.681
			h6.425v6.681h3.27V5.691h-3.27V11.981z M56.261,8.4h4.674v12.96h3.247V8.4h4.686V5.691H56.261V8.4z M111.93,21.377h8.946v-0.861
			h-8.001v-6.712h7.598v-0.863h-7.598V6.62h8.001V5.747h-8.946V21.377L111.93,21.377z M129.017,5.747h-4.209v15.631h4.209
			c5.095,0,7.021-3.16,7.021-7.815C136.038,8.884,134.019,5.747,129.017,5.747z M129.017,20.516h-3.265V6.607h3.265
			c4.255,0,6.062,2.748,6.062,6.955C135.079,17.814,133.28,20.516,129.017,20.516z M139.686,21.377h0.946V5.747h-0.946V21.377z
			 M143.665,6.607h5.279v14.771h0.944V6.607h5.271v-0.86h-11.496v0.86H143.665z M158.192,21.377h0.943V5.747h-0.943V21.377z
			 M168.956,5.389c-3.781,0-5.983,2.678-5.983,6.793v2.805c0,4.115,2.179,6.748,5.974,6.748c3.804,0,6.008-2.633,6.008-6.748v-2.781
			C174.95,8.08,172.749,5.389,168.956,5.389z M174.017,15.056c0,3.528-1.926,5.815-5.062,5.815c-3.137,0-5.051-2.287-5.051-5.815
			v-2.942c0-3.528,1.949-5.861,5.051-5.861c3.111,0,5.062,2.333,5.062,5.861V15.056z M188.764,5.747v13.976h-0.061L179.69,5.747
			h-0.969v15.631h0.945V7.401h0.057l9.016,13.977h0.967V5.747H188.764z M14.875,11.62c-0.025-2.704,2.215-4.004,2.316-4.067
			c-1.271-1.866-3.235-2.073-3.927-2.124c-1.765-0.13-3.263,0.983-4.098,0.983c-0.847,0-2.155-0.955-3.541-0.931
			C3.806,5.509,2.129,6.538,1.191,8.163c-1.89,3.271-0.483,8.117,1.358,10.771c0.901,1.298,1.974,2.759,3.385,2.705
			c1.359-0.052,1.872-0.876,3.513-0.876c1.64,0,2.103,0.876,3.539,0.85c1.461-0.025,2.388-1.322,3.281-2.628
			c1.035-1.505,1.461-2.961,1.485-3.041C17.72,15.932,14.904,14.853,14.875,11.62z M12.175,3.675
			c0.75-0.902,1.254-2.161,1.115-3.411c-1.078,0.042-2.383,0.716-3.157,1.618c-0.693,0.8-1.302,2.08-1.137,3.308
			C10.199,5.282,11.426,4.581,12.175,3.675z"/>
	</g>
</g>
</svg>
